<svg aria-hidden="true" style="position: absolute; width: 0; height: 0; overflow: hidden;" version="1.1" xmlns="http://www.w3.org/2000/svg" xmlns:xlink="http://www.w3.org/1999/xlink">
<defs>
<symbol id="icon-logo" viewBox="0 0 33 32">
<path fill="#89c8fd" style="fill: var(--color6, #89c8fd)" d="M24.242 18.41c0-5.816-4.702-10.531-10.503-10.531s-10.503 4.715-10.503 10.531c0 5.816 4.702 10.531 10.503 10.531s10.503-4.715 10.503-10.531z"></path>
<path fill="#60b6ff" style="fill: var(--color7, #60b6ff)" d="M13.739 7.879c-0.539 0-1.069 0.041-1.586 0.119 5.048 0.767 8.917 5.136 8.917 10.412s-3.869 9.645-8.917 10.412c0.517 0.079 1.047 0.119 1.586 0.119 5.801 0 10.503-4.715 10.503-10.531s-4.702-10.531-10.503-10.531z"></path>
<path fill="#baeb6c" style="fill: var(--color8, #baeb6c)" d="M12.374 11.971c-1.618 1.014-2.832 2.636-1.921 4.461s2.933 1.115 4.803 0.862c1.871-0.253 0.455 5.526 1.567 6.945s4.247-1.419 3.944-3.245c-0.449-2.702-0.607-3.65 3.034-5.576l0.010-0.004c-1.227-4.155-4.941-7.238-9.414-7.515l-0.001 0.016c0 0-0.405 3.042-2.022 4.056z"></path>
<path fill="#baeb6c" style="fill: var(--color8, #baeb6c)" d="M20.32 10.202c0.001 0.001 0.002 0.001 0.002 0.002-0.001-0.001-0.002-0.001-0.002-0.002z"></path>
<path fill="#baeb6c" style="fill: var(--color8, #baeb6c)" d="M21.604 11.431c0 0 0 0.001 0 0.001s-0-0-0-0.001z"></path>
<path fill="#baeb6c" style="fill: var(--color8, #baeb6c)" d="M6.762 23.175c-0.486-0.741 0.86-2.484 1.163-3.802s-1.517-1.217-2.073-1.673c-0.556-0.456-1.315-2.433-1.871-2.89l-0.089-0.070c-0.424 1.143-0.656 2.379-0.656 3.669 0 3.481 1.685 6.567 4.281 8.484l0.003-0.221c0 0 0.404-1.724-0.758-3.498z"></path>
<path fill="#baeb6c" style="fill: var(--color8, #baeb6c)" d="M20.767 20.995c-0.002-0.013-0.004-0.026-0.007-0.039-0.201 0.812-0.496 1.586-0.872 2.312 0.597-0.705 0.997-1.565 0.879-2.272z"></path>
<path fill="#96d629" style="fill: var(--color9, #96d629)" d="M14.397 7.9l-0 0.016c0 0-0.034 0.254-0.121 0.639 3.683 1.394 6.38 4.804 6.751 8.888 0.464-0.635 1.313-1.25 2.774-2.024l0.010-0.004c-1.227-4.155-4.941-7.238-9.414-7.515z"></path>
<path fill="#09a66d" style="fill: var(--color3, #09a66d)" d="M13.725 32c-0.744 0-1.493-0.061-2.242-0.185-3.579-0.591-6.714-2.541-8.827-5.489s-2.951-6.544-2.36-10.123c0.043-0.259 0.288-0.435 0.547-0.392s0.435 0.288 0.392 0.547c-0.55 3.328 0.23 6.672 2.195 9.414s4.88 4.555 8.209 5.105c6.872 1.135 13.384-3.532 14.52-10.403 0.55-3.328-0.23-6.672-2.195-9.414s-4.88-4.555-8.209-5.105c-0.259-0.043-0.435-0.288-0.392-0.547s0.288-0.435 0.547-0.392c3.58 0.591 6.715 2.541 8.827 5.489s2.951 6.544 2.36 10.123c-0.591 3.579-2.541 6.714-5.49 8.827-2.332 1.671-5.069 2.545-7.882 2.545z"></path>
<path fill="#49cb5c" style="fill: var(--color10, #49cb5c)" d="M10.836 11.493c-5.079-0.862-8.23-7.257-8.23-7.257s5.084-4.998 10.163-4.136c5.079 0.862 8.23 7.257 8.23 7.257s-5.084 4.998-10.163 4.136z"></path>
<path fill="#07b128" style="fill: var(--color11, #07b128)" d="M12.77 0.1c-0.97-0.165-1.94-0.115-2.874 0.072 4.867 1.093 7.869 7.184 7.869 7.184s-3.328 3.271-7.289 4.064c0.119 0.027 0.239 0.052 0.361 0.072 5.079 0.862 10.163-4.136 10.163-4.136s-3.151-6.395-8.23-7.257z"></path>
<path fill="#09a66d" style="fill: var(--color3, #09a66d)" d="M20.713 6.825l-4.967-0.838-4.64-5.974c-0.37 0.022-0.737 0.069-1.099 0.137l4.352 5.603-3.745-0.632-3.196-4.135c-0.3 0.135-0.591 0.279-0.872 0.428l2.685 3.474-6.193-1.045c-0.278 0.243-0.431 0.393-0.431 0.393s0.102 0.207 0.298 0.55l6.159 1.039-3.416 2.641c0.22 0.227 0.451 0.45 0.692 0.668l4.001-3.094 3.965 0.669-5.393 4.172c0.335 0.156 0.681 0.292 1.037 0.4l5.632-4.357 4.97 0.838c0.288-0.251 0.447-0.407 0.447-0.407s-0.098-0.199-0.287-0.531z"></path>
<path fill="#49cb5c" style="fill: var(--color10, #49cb5c)" d="M24.454 5.285c1.363-3.224 6.084-4.31 6.084-4.31s2.512 4.142 1.149 7.366c-1.362 3.224-6.084 4.31-6.084 4.31s-2.512-4.142-1.149-7.366z"></path>
<path fill="#07b128" style="fill: var(--color11, #07b128)" d="M30.538 0.976c0 0-1.073 0.247-2.345 0.855 0.652 1.381 1.686 4.185 0.703 6.511-0.713 1.687-2.344 2.788-3.739 3.455 0.252 0.533 0.447 0.855 0.447 0.855s4.721-1.085 6.084-4.31c1.362-3.224-1.15-7.366-1.15-7.366z"></path>
<path fill="#09a66d" style="fill: var(--color3, #09a66d)" d="M32.073 5.683l-3.63 1.523 2.384-5.699c-0.171-0.337-0.289-0.531-0.289-0.531s-0.225 0.052-0.59 0.166l-2.463 5.889-1.528-3.759c-0.259 0.228-0.503 0.476-0.724 0.745l1.731 4.259-1.626 3.887c0.159 0.31 0.266 0.488 0.266 0.488s0.244-0.056 0.637-0.181l1.679-4.014 4.152-1.742c0.028-0.345 0.026-0.691 0.002-1.033z"></path>
</symbol>
<symbol id="icon-basket">
<svg  fill="none" xmlns="http://www.w3.org/2000/svg">
<path fill-rule="evenodd" clip-rule="evenodd" d="M5.6166 17.8203C6.0386 17.8203 6.3816 18.1633 6.3816 18.5853C6.3816 19.0073 6.0386 19.3493 5.6166 19.3493C5.1946 19.3493 4.8526 19.0073 4.8526 18.5853C4.8526 18.1633 5.1946 17.8203 5.6166 17.8203Z" stroke="#222222" stroke-width="1.5" stroke-linecap="round" stroke-linejoin="round"/>
<path fill-rule="evenodd" clip-rule="evenodd" d="M16.869 17.8203C17.291 17.8203 17.634 18.1633 17.634 18.5853C17.634 19.0073 17.291 19.3493 16.869 19.3493C16.447 19.3493 16.104 19.0073 16.104 18.5853C16.104 18.1633 16.447 17.8203 16.869 17.8203Z" stroke="#222222" stroke-width="1.5" stroke-linecap="round" stroke-linejoin="round"/>
<path d="M0.944214 1.25L3.02421 1.61L3.98721 13.083C4.06521 14.018 4.84621 14.736 5.78421 14.736H16.6962C17.5922 14.736 18.3522 14.078 18.4812 13.19L19.4302 6.632C19.5472 5.823 18.9202 5.099 18.1032 5.099H3.35821" stroke="#222222" stroke-width="1.5" stroke-linecap="round" stroke-linejoin="round"/>
<path d="M12.3197 8.79688H15.0927" stroke="#222222" stroke-width="1.5" stroke-linecap="round" stroke-linejoin="round"/>
</svg>
</symbol>
<symbol id="icon-search" viewBox="0 0 32 32">
<svg fill="none" xmlns="http://www.w3.org/2000/svg">
<circle cx="9.96091" cy="9.76663" r="8.98856" stroke="#222222" stroke-width="1.5" stroke-linecap="round" stroke-linejoin="round"/>
<path d="M16.2126 16.4851L19.7367 20" stroke="#222222" stroke-width="1.5" stroke-linecap="round" stroke-linejoin="round"/>
</svg>

</symbol>
<symbol id="icon-star" viewBox="0 0 32 32">
<path fill="#fed42d" style="fill: var(--color4, #fed42d)" d="M31.954 12.329c-0.11-0.339-0.404-0.587-0.757-0.638l-9.92-1.442-4.436-8.989c-0.158-0.32-0.484-0.523-0.841-0.523s-0.683 0.203-0.841 0.523l-4.437 8.989-9.92 1.442c-0.353 0.051-0.647 0.299-0.757 0.638s-0.018 0.712 0.237 0.961l7.178 6.997-1.694 9.88c-0.060 0.352 0.084 0.707 0.373 0.917s0.671 0.238 0.987 0.071l8.873-4.665 8.872 4.665c0.137 0.072 0.287 0.108 0.436 0.108 0.194 0 0.388-0.060 0.551-0.179 0.289-0.21 0.433-0.565 0.373-0.917l-1.695-9.88 7.179-6.997c0.256-0.249 0.348-0.622 0.237-0.961z"></path>
<path fill="#fcbf29" style="fill: var(--color5, #fcbf29)" d="M31.954 12.329c-0.11-0.339-0.404-0.587-0.757-0.638l-9.92-1.442-4.436-8.989c-0.158-0.32-0.484-0.523-0.841-0.523v25.753l8.873 4.665c0.137 0.072 0.287 0.108 0.436 0.108 0.194 0 0.388-0.060 0.551-0.179 0.289-0.21 0.433-0.565 0.373-0.917l-1.695-9.88 7.179-6.997c0.256-0.249 0.348-0.622 0.237-0.961z"></path>
</symbol>
<symbol id="icon-user" viewBox="0 0 32 32">
<path fill="#09a66d" style="fill: var(--color3, #09a66d)" d="M16.002 0c-4.572 0-8.308 3.737-8.308 8.308s3.737 8.308 8.308 8.308c4.571 0 8.308-3.737 8.308-8.308s-3.737-8.308-8.308-8.308z"></path>
<path fill="#09a66d" style="fill: var(--color3, #09a66d)" d="M30.261 23.256c-0.218-0.544-0.508-1.052-0.834-1.524-1.669-2.467-4.245-4.1-7.147-4.499-0.363-0.036-0.762 0.036-1.052 0.254-1.524 1.125-3.338 1.705-5.224 1.705s-3.701-0.58-5.225-1.705c-0.29-0.218-0.689-0.326-1.052-0.254-2.902 0.399-5.515 2.032-7.147 4.499-0.327 0.472-0.617 1.016-0.834 1.524-0.109 0.218-0.073 0.472 0.036 0.689 0.29 0.508 0.653 1.016 0.98 1.451 0.508 0.689 1.052 1.306 1.669 1.887 0.508 0.508 1.088 0.98 1.669 1.451 2.866 2.141 6.313 3.265 9.868 3.265s7.002-1.125 9.869-3.265c0.581-0.435 1.161-0.943 1.669-1.451 0.581-0.581 1.161-1.197 1.669-1.887 0.363-0.472 0.689-0.943 0.98-1.451 0.181-0.218 0.218-0.472 0.109-0.689z"></path>
</symbol>
<symbol id="icon-food" viewBox="0 0 32 32">
<path fill="#09a66d" style="fill: var(--color3, #09a66d)" d="M22.472 10h1.45c1.207 0 2.218-0.861 2.45-2h-1.45c-1.207 0-2.217 0.861-2.45 2z"></path>
<path fill="#09a66d" style="fill: var(--color3, #09a66d)" d="M11 5.5c0.050 0 0.098 0.006 0.147 0.008l0.351-3.51c0.002-0.294-0.201-0.498-0.45-0.498h-0.095c-0.25 0-0.453 0.203-0.453 0.453l0.354 3.555c0.049-0.002 0.097-0.008 0.146-0.008z"></path>
<path fill="#09a66d" style="fill: var(--color3, #09a66d)" d="M7 16c0-0.171 0.018-0.337 0.045-0.5h-1.045v0.342c0.375 0.179 0.713 0.42 1 0.713v-0.555z"></path>
<path fill="#09a66d" style="fill: var(--color3, #09a66d)" d="M6.595 3.778l1.711 2.518c0.134-0.087 0.273-0.167 0.415-0.24l-1.029-2.829c-0.008-0.020-0.015-0.038-0.024-0.057-0.071-0.141-0.183-0.239-0.322-0.284s-0.288-0.035-0.418 0.030l-0.125 0.063c-0.271 0.135-0.38 0.465-0.245 0.736 0.011 0.020 0.024 0.042 0.038 0.063z"></path>
<path fill="#09a66d" style="fill: var(--color3, #09a66d)" d="M8.691 14.5h5.569l0.656-3.148c0.056-0.268 0.084-0.543 0.084-0.816 0-2.242-1.794-4.036-4-4.036s-4 1.794-4 4c0 0.309 0.029 0.584 0.084 0.852l0.578 2.773c0.55-0.685 1.393-1.125 2.338-1.125v1c-0.502 0-0.957 0.193-1.309 0.5zM12.5 8.5h1v1h-1v-1zM12.5 10.5h1v1h-1v-1zM12.5 12.5h1v1h-1v-1z"></path>
<path fill="#09a66d" style="fill: var(--color3, #09a66d)" d="M5.5 18.5h1.45c-0.232-1.139-1.242-2-2.45-2h-1.45c0.232 1.139 1.242 2 2.45 2z"></path>
<path fill="#09a66d" style="fill: var(--color3, #09a66d)" d="M15.405 3.777c0.013-0.020 0.027-0.042 0.037-0.064 0.134-0.268 0.024-0.599-0.246-0.734l-0.125-0.063c-0.131-0.065-0.278-0.076-0.418-0.030-0.139 0.046-0.252 0.144-0.317 0.275-0.014 0.028-0.022 0.046-0.029 0.066l-1.028 2.829c0.143 0.074 0.281 0.154 0.415 0.24l1.711-2.518z"></path>
<path fill="#09a66d" style="fill: var(--color3, #09a66d)" d="M14.492 24.5h14.008v-3h-14.674c0.441 0.928 0.665 1.949 0.666 3zM26.5 22.5h1v1h-1v-1z"></path>
<path fill="#09a66d" style="fill: var(--color3, #09a66d)" d="M13.232 28.5h13.768c0.827 0 1.5-0.673 1.5-1.5v-1.5h-14.072c-0.159 1.102-0.581 2.123-1.197 3zM26.5 26.5h1v1h-1v-1z"></path>
<path fill="#09a66d" style="fill: var(--color3, #09a66d)" d="M8.071 15.5c-0.042 0.161-0.071 0.326-0.071 0.5v0.5h22.5v-1h-22.429z"></path>
<path fill="#09a66d" style="fill: var(--color3, #09a66d)" d="M8 18.933c0.101-0.024 0.201-0.050 0.293-0.090 1.525-0.652 3.3-0.261 4.413 0.977 0.194 0.215 0.368 0.445 0.531 0.678h15.263v-3h-20.5v1.434zM26.5 18.5h1v1h-1v-1z"></path>
<path fill="#09a66d" style="fill: var(--color3, #09a66d)" d="M11.963 20.49c-0.814-0.905-2.162-1.204-3.277-0.727-0.214 0.091-0.447 0.154-0.686 0.193v0.942c0.496-0.185 0.968-0.575 1.147-0.753l0.707 0.708c-0.117 0.117-1.18 1.146-2.354 1.146s-2.236-1.029-2.354-1.146l0.707-0.708c0.179 0.177 0.651 0.567 1.147 0.753v-1.398h-1.5c-0.17 0-0.335-0.016-0.497-0.040-0.701 0.050-1.442 0.442-1.988 1.055-0.977 1.099-1.514 2.513-1.514 3.985 0 1.646 0.654 3.182 1.841 4.324s2.739 1.731 4.399 1.672c3.091-0.119 5.619-2.634 5.755-5.723 0.069-1.585-0.475-3.107-1.532-4.282zM7.5 29.5c-2.757 0-5-2.243-5-5h1c0 2.206 1.795 4 4 4v1z"></path>
<path fill="#09a66d" style="fill: var(--color3, #09a66d)" d="M26.385 14.5c-0.239-0.929-0.695-1.788-1.345-2.51-0.814-0.905-2.162-1.204-3.277-0.726-0.085 0.037-0.174 0.067-0.264 0.095v-4.359c0-0.827 0.673-1.5 1.5-1.5h0.5v-1h-0.5c-1.378 0-2.5 1.122-2.5 2.5v4.359c-0.090-0.028-0.179-0.059-0.264-0.095-1.114-0.477-2.462-0.178-3.277 0.726-0.649 0.722-1.105 1.581-1.345 2.51h10.771zM18.753 12.069c0.008 0.004 0.765 0.431 2.247 0.431s2.239-0.427 2.247-0.431l0.511 0.86c-0.038 0.024-0.973 0.572-2.757 0.572s-2.718-0.548-2.758-0.572l0.511-0.86z"></path>
</symbol>
<symbol id="icon-arrow" viewBox="0 0 66 32">
<path fill="#fff" style="fill: var(--color2, #fff)" d="M65.414 17.352c0.781-0.781 0.781-2.047 0-2.828l-12.728-12.728c-0.781-0.781-2.047-0.781-2.828 0s-0.781 2.047 0 2.828l11.314 11.314-11.314 11.314c-0.781 0.781-0.781 2.047 0 2.828s2.047 0.781 2.828 0l12.728-12.728zM0 17.938h64v-4h-64v4z"></path>
</symbol>
<symbol id="icon-fast-time" viewBox="0 0 32 32">
<path fill="#09a66d" style="fill: var(--color3, #09a66d)" d="M2.737 9.796h4.823c0.253 0 0.457-0.205 0.457-0.457s-0.205-0.457-0.457-0.457h-4.823c-0.253 0-0.457 0.205-0.457 0.457s0.205 0.457 0.457 0.457z"></path>
<path fill="#09a66d" style="fill: var(--color3, #09a66d)" d="M7.395 11.997h-1.905c-0.253 0-0.457 0.205-0.457 0.457s0.205 0.457 0.457 0.457h1.905c0.253 0 0.457-0.205 0.457-0.457s-0.205-0.457-0.457-0.457z"></path>
<path fill="#09a66d" style="fill: var(--color3, #09a66d)" d="M0.824 15.168h4.665c0.253 0 0.457-0.205 0.457-0.457s-0.205-0.457-0.457-0.457h-4.665c-0.253 0-0.457 0.205-0.457 0.457s0.205 0.457 0.457 0.457z"></path>
<path fill="#09a66d" style="fill: var(--color3, #09a66d)" d="M8.017 23.276c0-0.253-0.205-0.457-0.457-0.457h-4.823c-0.253 0-0.457 0.205-0.457 0.457s0.205 0.457 0.457 0.457h4.823c0.253 0 0.457-0.205 0.457-0.457z"></path>
<path fill="#09a66d" style="fill: var(--color3, #09a66d)" d="M7.395 19.702h-1.905c-0.253 0-0.457 0.205-0.457 0.457s0.205 0.457 0.457 0.457h1.905c0.253 0 0.457-0.205 0.457-0.457s-0.205-0.457-0.457-0.457z"></path>
<path fill="#09a66d" style="fill: var(--color3, #09a66d)" d="M5.947 17.903c0-0.253-0.205-0.457-0.457-0.457h-4.665c-0.253 0-0.457 0.205-0.457 0.457s0.205 0.457 0.457 0.457h4.665c0.253 0 0.457-0.205 0.457-0.457z"></path>
<path fill="#09a66d" style="fill: var(--color3, #09a66d)" d="M19.85 10.809c0.253 0 0.457-0.205 0.457-0.457v-0.698c0-0.253-0.205-0.457-0.457-0.457s-0.457 0.205-0.457 0.457v0.698c0 0.253 0.205 0.457 0.457 0.457z"></path>
<path fill="#09a66d" style="fill: var(--color3, #09a66d)" d="M24.878 11.279c-0.179-0.178-0.468-0.178-0.647 0l-0.494 0.494c-0.179 0.179-0.179 0.468 0 0.647s0.468 0.178 0.647 0l0.494-0.494c0.179-0.179 0.179-0.468 0-0.647z"></path>
<path fill="#09a66d" style="fill: var(--color3, #09a66d)" d="M25.805 15.85c-0.253 0-0.457 0.205-0.457 0.457s0.205 0.457 0.457 0.457h0.698c0.253 0 0.457-0.205 0.457-0.457s-0.205-0.457-0.457-0.457h-0.698z"></path>
<path fill="#09a66d" style="fill: var(--color3, #09a66d)" d="M24.385 20.195c-0.179-0.179-0.468-0.179-0.647 0s-0.179 0.468 0 0.647l0.494 0.494c0.179 0.179 0.468 0.178 0.647 0s0.179-0.468 0-0.647l-0.494-0.494z"></path>
<path fill="#09a66d" style="fill: var(--color3, #09a66d)" d="M19.393 22.263v0.698c0 0.253 0.205 0.457 0.457 0.457s0.457-0.205 0.457-0.457v-0.698c0-0.253-0.205-0.457-0.457-0.457s-0.457 0.205-0.457 0.457z"></path>
<path fill="#09a66d" style="fill: var(--color3, #09a66d)" d="M15.316 20.195l-0.494 0.494c-0.179 0.179-0.179 0.468 0 0.647s0.468 0.178 0.647 0l0.494-0.494c0.179-0.179 0.179-0.468 0-0.647s-0.468-0.179-0.647 0z"></path>
<path fill="#09a66d" style="fill: var(--color3, #09a66d)" d="M13.196 15.85c-0.253 0-0.457 0.205-0.457 0.457s0.205 0.457 0.457 0.457h0.698c0.253 0 0.457-0.205 0.457-0.457s-0.205-0.457-0.457-0.457h-0.698z"></path>
<path fill="#09a66d" style="fill: var(--color3, #09a66d)" d="M15.962 11.773l-0.494-0.494c-0.179-0.178-0.468-0.178-0.647 0s-0.179 0.468 0 0.647l0.494 0.494c0.179 0.179 0.468 0.178 0.647 0s0.179-0.468 0-0.647z"></path>
<path fill="#09a66d" style="fill: var(--color3, #09a66d)" d="M22.309 16.307c0-0.253-0.205-0.457-0.457-0.457h-1.544v-3.395c0-0.253-0.205-0.457-0.457-0.457s-0.457 0.205-0.457 0.457v3.853c0 0.253 0.205 0.457 0.457 0.457h2.002c0.253 0 0.457-0.205 0.457-0.457z"></path>
<path fill="#09a66d" style="fill: var(--color3, #09a66d)" d="M28.522 16.232c0.252-0.015 0.444-0.232 0.429-0.484-0.291-4.799-4.288-8.558-9.1-8.558-5.028 0-9.118 4.090-9.118 9.118s4.090 9.118 9.118 9.118c4.504 0 8.348-3.3 9.016-7.753 0.037-0.25-0.135-0.483-0.384-0.52s-0.483 0.135-0.52 0.384c-0.601 4.001-4.055 6.975-8.112 6.975-4.523 0-8.203-3.68-8.203-8.203s3.68-8.203 8.203-8.203c4.329 0 7.926 3.382 8.187 7.699 0.015 0.252 0.232 0.443 0.484 0.429z"></path>
<path fill="#09a66d" style="fill: var(--color3, #09a66d)" d="M19.85 4.571c-1.609 0-3.185 0.334-4.635 0.958h-8.069c-0.253 0-0.457 0.205-0.457 0.457s0.205 0.457 0.457 0.457h6.348c-0.858 0.552-1.649 1.219-2.345 1.988-0.17 0.187-0.155 0.476 0.032 0.646s0.476 0.155 0.646-0.032c2.049-2.262 4.973-3.56 8.023-3.56 5.967 0 10.821 4.854 10.821 10.821s-4.854 10.821-10.821 10.821c-5.967 0-10.821-4.854-10.821-10.821 0-2.090 0.597-4.118 1.726-5.865 0.137-0.212 0.076-0.495-0.136-0.632s-0.495-0.076-0.632 0.136c-1.225 1.896-1.872 4.095-1.872 6.361 0 4.132 2.147 7.772 5.383 9.864h-6.351c-0.253 0-0.457 0.205-0.457 0.457s0.205 0.457 0.457 0.457h8.063c1.424 0.616 2.994 0.958 4.642 0.958 6.471 0 11.736-5.265 11.736-11.736s-5.265-11.736-11.736-11.736z"></path>
</symbol>
<symbol id="icon-shopping-list" viewBox="0 0 32 32">
<path fill="#09a66d" style="fill: var(--color3, #09a66d)" d="M11.829 22.412h8.11c0.253 0 0.457-0.205 0.457-0.457s-0.205-0.457-0.457-0.457h-8.11c-0.253 0-0.457 0.205-0.457 0.457s0.205 0.457 0.457 0.457zM13.262 11.92h5.429c0.414 0 0.773-0.266 0.893-0.662l1.139-3.755c0.087-0.286 0.035-0.587-0.143-0.827s-0.451-0.377-0.75-0.377h-0.406l-0.829-2.072c-0.191-0.477-0.646-0.785-1.159-0.785h-2.921c-0.514 0-0.969 0.308-1.159 0.785l-0.829 2.072h-0.406c-0.299 0-0.572 0.138-0.75 0.378s-0.23 0.541-0.143 0.827l1.14 3.755c0.12 0.396 0.479 0.662 0.893 0.662zM12.107 7.221c0.014-0.019 2.488-0.002 2.505-0.008 0.253 0 0.457-0.205 0.457-0.457s-0.205-0.457-0.457-0.457h-1.099l0.693-1.733c0.051-0.128 0.173-0.21 0.31-0.21h2.921c0.137 0 0.259 0.082 0.31 0.21l0.693 1.733h-1.694c-0.253 0-0.457 0.205-0.457 0.457s0.205 0.457 0.457 0.457c0.015 0 3.088-0.008 3.1 0.008 0.014 0.018-1.137 3.752-1.137 3.771 0 0.041-5.463 0.008-5.466 0-0.006-0.019-1.15-3.753-1.137-3.771zM11.829 26.974c-0.253 0-0.457 0.205-0.457 0.457s0.205 0.457 0.457 0.457h8.11c0.253 0 0.457-0.205 0.457-0.457s-0.205-0.457-0.457-0.457h-8.11zM24.055 25.602c0-0.253-0.205-0.457-0.457-0.457h-11.769c-0.253 0-0.457 0.205-0.457 0.457s0.205 0.457 0.457 0.457h11.769c0.253 0 0.457-0.205 0.457-0.457zM26.341 20.716c0.253 0 0.457-0.205 0.457-0.457v-17.275c0-1.261-1.026-2.287-2.287-2.287h-17.071c-1.261 0-2.287 1.026-2.287 2.287v26.646c0 1.261 1.026 2.287 2.287 2.287h17.071c1.261 0 2.287-1.026 2.287-2.287v-7.237c0-0.253-0.205-0.457-0.457-0.457s-0.457 0.205-0.457 0.457v7.237c0 0.757-0.616 1.372-1.372 1.372h-17.071c-0.757 0-1.372-0.616-1.372-1.372v-26.646c0-0.757 0.615-1.372 1.372-1.372h17.071c0.756 0 1.372 0.615 1.372 1.372v17.275c-0 0.253 0.205 0.457 0.457 0.457zM10.021 22.762c-0.225 0.003-0.461 0.005-0.678 0.006 0.154-0.209 0.348-0.478 0.591-0.825 0.213-0.304 0.363-0.579 0.402-0.865 0.006-0.047 0.019-0.131 0.019-0.176 0-0.681-0.554-1.236-1.236-1.236-0.589 0-1.099 0.419-1.213 0.997-0.049 0.248 0.113 0.488 0.361 0.537s0.488-0.113 0.537-0.361c0.029-0.15 0.162-0.258 0.315-0.258 0.169 0 0.309 0.132 0.32 0.298 0.012 0.164-0.072 0.278-0.255 0.539-0.48 0.687-0.767 1.062-0.921 1.263-0.269 0.352-0.397 0.811 0.068 0.966 0.060 0.020 1.267 0.034 1.701 0.028 0.253-0.003 0.455-0.21 0.451-0.463s-0.213-0.456-0.463-0.452zM23.598 19.668h-11.769c-0.253 0-0.457 0.205-0.457 0.457s0.205 0.457 0.457 0.457h11.769c0.253 0 0.457-0.205 0.457-0.457s-0.205-0.457-0.457-0.457zM9.191 25.145c-0.589 0-1.099 0.419-1.213 0.997-0.049 0.248 0.113 0.488 0.361 0.537s0.488-0.113 0.537-0.361c0.029-0.15 0.162-0.258 0.315-0.258 0.177 0 0.321 0.144 0.321 0.321s-0.144 0.321-0.321 0.321c-0.253 0-0.457 0.205-0.457 0.457s0.205 0.457 0.457 0.457c0.177 0 0.321 0.144 0.321 0.321s-0.144 0.321-0.321 0.321c-0.159 0-0.296-0.119-0.318-0.276-0.002-0.015-0.003-0.030-0.003-0.045 0-0.253-0.205-0.457-0.457-0.457s-0.457 0.205-0.457 0.457c0 0.672 0.557 1.236 1.236 1.236 0.681 0 1.236-0.554 1.236-1.236 0-0.295-0.104-0.566-0.277-0.778 0.173-0.213 0.277-0.484 0.277-0.778 0-0.681-0.554-1.236-1.236-1.236zM9.191 18.172c0.253 0 0.457-0.205 0.457-0.457v-3.042c0-0.252-0.205-0.457-0.457-0.457h-0.65c-0.253 0-0.457 0.205-0.457 0.457s0.205 0.457 0.457 0.457h0.193v2.585c0 0.253 0.205 0.457 0.457 0.457zM11.829 16.959h8.11c0.253 0 0.457-0.205 0.457-0.457s-0.205-0.457-0.457-0.457h-8.11c-0.253 0-0.457 0.205-0.457 0.457s0.205 0.457 0.457 0.457zM23.598 14.215h-11.769c-0.253 0-0.457 0.205-0.457 0.457s0.205 0.457 0.457 0.457h11.769c0.253 0 0.457-0.205 0.457-0.457s-0.205-0.457-0.457-0.457z"></path>
</symbol>
<symbol id="icon-driver" viewBox="0 0 34 32">
<path fill="#09a66d" style="fill: var(--color3, #09a66d)" d="M31.464 10.039h-5.566c-0.96 0-1.742 0.782-1.742 1.743v6.406h-2.082c0.116-0.421 0.159-0.917 0.13-1.494v-0c-0.045-2.44-0.488-4.496-1.316-6.111-0.643-1.254-1.393-2.006-2.037-2.456 0.756-0.777 1.193-1.882 1.193-3.157 0-2.294-1.83-4.16-4.079-4.16s-4.079 1.866-4.079 4.16c0 0.266 0.215 0.481 0.481 0.481h0.327c-0.030 0.181-0.046 0.366-0.046 0.554 0 1.616 1.155 2.967 2.682 3.27-0.16 0.594-0.24 1.295-0.239 2.091l-1.199 1.031-2.918 0.236-3.366-1.113c-0.308-0.103-0.658-0.219-0.961 0-0.299 0.216-0.299 0.593-0.299 0.717v2.502c0 0.266 0.215 0.481 0.481 0.481h0.572l-0.878 3.034c-0.074 0.255 0.073 0.522 0.328 0.595s0.522-0.073 0.596-0.328l0.955-3.301h1.367c-1.7 5.184-0.73 8.645 0.761 12.146h-0.864l-3.6-4.025 0.761-2.63c0.074-0.255-0.073-0.522-0.328-0.595s-0.522 0.073-0.596 0.328l-0.728 2.515c-2.252-0.038-4.266 1.515-4.779 3.748-0.059 0.259 0.102 0.517 0.361 0.576l0.682 0.157c-0.174 1.811 1.018 3.52 2.837 3.938 0.276 0.064 0.555 0.095 0.831 0.095 0.682 0 1.353-0.191 1.946-0.563 0.696-0.436 1.214-1.077 1.495-1.835l0.539 0.124c0.161 0.037 0.313 0.056 0.465-0.026 0.141-0.076 0.236-0.214 0.271-0.369 0.034-0.157 0.060-0.317 0.077-0.479h10.055c0.322 1.999 2.023 3.506 4.054 3.506s3.733-1.507 4.054-3.506h0.367c0 0 0.073 0.001 0.089 0.001 0.137 0 0.336-0.015 0.499-0.181 0.082-0.083 0.177-0.232 0.17-0.468-0.014-0.451-0.081-0.888-0.197-1.302 0.383-2.325 0.015-3.741-0.532-4.849 0.345-0.226 0.574-0.616 0.574-1.059v-1.321h2.428c0.96 0 1.742-0.782 1.742-1.743v-5.625c0-0.961-0.781-1.743-1.742-1.743zM6.544 30.099c-0.615 0.386-1.344 0.508-2.051 0.346h-0c-1.301-0.299-2.169-1.493-2.106-2.783l5.215 1.2c-0.216 0.508-0.581 0.938-1.058 1.237zM8.95 28.184l-7.479-1.721c0.577-1.58 2.13-2.627 3.828-2.537l3.664 4.096c-0.003 0.054-0.007 0.108-0.013 0.161zM16.212 19.807c-0.14 0.368-0.14 0.822-0.14 1.45v1.814h-1.76v-2.489c0-2.814 1.536-3.315 2.225-3.398h4.713c-0.019 0.639-0.163 1.093-0.437 1.381-0.319 0.336-0.864 0.499-1.668 0.5l-1.726 0.002c-0.615 0-1.022 0.249-1.208 0.74zM16.072 24.032v1.148c-0.004 0-0.009 0-0.013 0h-3.415c0.038-0.356 0.149-0.632 0.331-0.822 0.271-0.283 0.652-0.326 0.856-0.326h2.241zM21.229 16.222h-4.372c-0.175-0.553-0.332-1.158-0.461-1.779l1.329-0.863c0.726-0.471 1.103-1.137 1.036-1.827-0.060-0.611-0.475-1.158-1.059-1.391-0.533-0.213-1.107-0.146-1.614 0.178 0.042-0.46 0.12-0.87 0.232-1.219 0.205-0.021 0.409-0.061 0.608-0.12 0.407-0.095 0.783-0.245 1.122-0.445 0.926 0.553 2.962 2.348 3.178 7.466zM12.884 4.489c0.227-1.536 1.522-2.717 3.082-2.717 1.719 0 3.117 1.435 3.117 3.198 0 1.434-0.688 2.59-1.797 3.099v-2.53c0-0.438-0.168-0.975-0.966-1.048-0.015-0.001-0.029-0.002-0.044-0.002h-3.393zM13.611 6.004c0-0.19 0.022-0.375 0.064-0.554h2.579c0.030 0.003 0.051 0.007 0.067 0.010 0.002 0.018 0.005 0.043 0.005 0.079v2.813c-0.115 0.017-0.23 0.025-0.345 0.025-0.001 0-0.002 0-0.003 0-1.305-0.001-2.366-1.065-2.366-2.372zM12.987 13.435l1.139-0.092c0.101-0.008 0.198-0.048 0.275-0.115l2.055-1.768c0.199-0.171 0.411-0.259 0.617-0.259 0.092 0 0.183 0.017 0.271 0.053 0.254 0.102 0.434 0.334 0.46 0.592 0.032 0.325-0.182 0.654-0.602 0.927l-2.29 1.486h-1.924v-0.825h-0zM10.956 13.6l1.070-0.086v0.747h-1.244c-0.161 0-0.201-0.134-0.205-0.246-0.003-0.064 0.003-0.383 0.379-0.414zM9.818 13.268c-0.145 0.237-0.212 0.515-0.201 0.785 0.003 0.070 0.012 0.137 0.024 0.203 0 0.001-0.001 0.003-0.001 0.004h-2.329v-1.825l2.509 0.829c-0.001 0.001-0.001 0.002-0.002 0.004zM10.785 15.221h4.269c0.093 0 0.184-0.027 0.262-0.078l0.218-0.141c0.105 0.463 0.224 0.913 0.354 1.338-0.98 0.289-2.537 1.225-2.537 4.241v2.537c-0.337 0.068-0.736 0.225-1.070 0.575-0.352 0.368-0.553 0.867-0.601 1.487h-0.97c-0.977-2.817-1.349-5.814 0.075-9.959zM11.577 27.366c-0.178-0.409-0.349-0.816-0.51-1.224h4.992c0.647 0 0.975-0.295 0.975-0.875v-3.529h3.795c0.266 0 0.481-0.215 0.481-0.481s-0.215-0.481-0.481-0.481h-3.791c0.006-0.273 0.024-0.496 0.074-0.628 0.024-0.064 0.045-0.12 0.309-0.12l1.726-0.002c1.081-0.001 1.854-0.263 2.364-0.8 0.024-0.025 0.046-0.051 0.068-0.077h6.495v1.321c0 0.165-0.139 0.305-0.304 0.305h-4.786c-0.266 0-0.481 0.215-0.481 0.481s0.215 0.481 0.481 0.481h4.504c0.38 0.705 0.722 1.583 0.702 2.97-0.951-1.321-2.491-2.171-4.239-2.171-1.403 0-2.72 0.55-3.708 1.55-0.877 0.887-1.403 2.038-1.511 3.281l-7.154-0.002zM24.010 30.874c-1.503 0-2.771-1.083-3.077-2.545h6.154c-0.307 1.462-1.574 2.545-3.077 2.545zM27.634 27.368h-7.937c0.236-2.174 2.054-3.87 4.254-3.87 1.932 0 3.554 1.274 4.091 3.057 0.002 0.006 0.003 0.011 0.005 0.017 0.076 0.256 0.13 0.522 0.159 0.797h-0.572zM32.244 17.407c0 0.431-0.35 0.781-0.78 0.781h-6.346v-2.483h7.126v1.702zM32.244 14.744h-7.126v-1.022h7.126v1.022zM32.244 12.76h-7.126v-0.978c0-0.431 0.35-0.781 0.78-0.781h5.566c0.43 0 0.78 0.351 0.78 0.781v0.978z"></path>
</symbol>
<symbol id="icon-4-5-stars" viewBox="0 0 204 32">
<path fill="#f1b90b" style="fill: var(--color1, #f1b90b)" d="M188.567 20.539l5.463 3.057-1.221-6.139 4.596-4.251-6.216-0.737-2.621-5.684v13.754zM188.567 23.487l-9.072 5.078 2.025-10.197-7.633-7.059 10.324-1.224 4.356-9.441 4.355 9.441 10.325 1.224-7.635 7.059 2.027 10.197-9.072-5.078z"></path>
<path fill="#f1b90b" style="fill: var(--color1, #f1b90b)" d="M15.694 23.487l-9.072 5.078 2.026-10.197-7.634-7.059 10.325-1.225 4.355-9.441 4.355 9.441 10.325 1.225-7.634 7.059 2.026 10.197-9.072-5.078z"></path>
<path fill="#f1b90b" style="fill: var(--color1, #f1b90b)" d="M58.913 23.487l-9.072 5.078 2.026-10.197-7.634-7.059 10.325-1.224 4.355-9.441 4.355 9.441 10.325 1.224-7.634 7.059 2.026 10.197-9.072-5.078z"></path>
<path fill="#f1b90b" style="fill: var(--color1, #f1b90b)" d="M102.13 23.487l-9.072 5.078 2.026-10.197-7.634-7.059 10.325-1.224 4.355-9.441 4.355 9.441 10.325 1.224-7.634 7.059 2.026 10.197-9.072-5.078z"></path>
<path fill="#f1b90b" style="fill: var(--color1, #f1b90b)" d="M145.348 23.487l-9.072 5.078 2.027-10.197-7.634-7.059 10.325-1.224 4.355-9.441 4.356 9.441 10.324 1.224-7.633 7.059 2.025 10.197-9.072-5.078z"></path>
</symbol>
<symbol id="icon-5-stars" viewBox="0 0 204 32">
<path fill="#f1b90b" style="fill: var(--color1, #f1b90b)" d="M188.567 20.539l5.463 3.057-1.221-6.139 4.596-4.251-6.216-0.737-2.621-5.684v13.754zM188.567 23.487l-9.072 5.078 2.025-10.197-7.633-7.059 10.324-1.224 4.356-9.441 4.355 9.441 10.325 1.224-7.635 7.059 2.027 10.197-9.072-5.078z"></path>
<path fill="#f1b90b" style="fill: var(--color1, #f1b90b)" d="M188.015 23.487l-9.072 5.078 2.027-10.197-7.635-7.059 10.325-1.224 4.355-9.441 4.356 9.441 10.324 1.224-7.633 7.059 2.025 10.197-9.072-5.078z"></path>
<path fill="#f1b90b" style="fill: var(--color1, #f1b90b)" d="M15.694 23.487l-9.072 5.078 2.026-10.197-7.634-7.059 10.325-1.225 4.355-9.441 4.355 9.441 10.325 1.225-7.634 7.059 2.026 10.197-9.072-5.078z"></path>
<path fill="#f1b90b" style="fill: var(--color1, #f1b90b)" d="M58.913 23.487l-9.072 5.078 2.026-10.197-7.634-7.059 10.325-1.224 4.355-9.441 4.355 9.441 10.325 1.224-7.634 7.059 2.026 10.197-9.072-5.078z"></path>
<path fill="#f1b90b" style="fill: var(--color1, #f1b90b)" d="M102.13 23.487l-9.072 5.078 2.026-10.197-7.634-7.059 10.325-1.224 4.355-9.441 4.355 9.441 10.325 1.224-7.634 7.059 2.026 10.197-9.072-5.078z"></path>
<path fill="#f1b90b" style="fill: var(--color1, #f1b90b)" d="M145.348 23.487l-9.072 5.078 2.027-10.197-7.634-7.059 10.325-1.224 4.355-9.441 4.356 9.441 10.324 1.224-7.633 7.059 2.025 10.197-9.072-5.078z"></path>
</symbol>
<symbol id="icon-4-stars" viewBox="0 0 204 32">
<path fill="#f1b90b" style="fill: var(--color1, #f1b90b)" d="M15.694 23.487l-9.072 5.078 2.026-10.197-7.634-7.059 10.325-1.225 4.355-9.441 4.355 9.441 10.325 1.225-7.634 7.059 2.026 10.197-9.072-5.078z"></path>
<path fill="#f1b90b" style="fill: var(--color1, #f1b90b)" d="M58.913 23.487l-9.072 5.078 2.026-10.197-7.634-7.059 10.325-1.224 4.355-9.441 4.355 9.441 10.325 1.224-7.634 7.059 2.026 10.197-9.072-5.078z"></path>
<path fill="#f1b90b" style="fill: var(--color1, #f1b90b)" d="M102.13 23.487l-9.072 5.078 2.026-10.197-7.634-7.059 10.325-1.224 4.355-9.441 4.355 9.441 10.325 1.224-7.634 7.059 2.026 10.197-9.072-5.078z"></path>
<path fill="#f1b90b" style="fill: var(--color1, #f1b90b)" d="M145.348 23.487l-9.072 5.078 2.027-10.197-7.634-7.059 10.325-1.224 4.355-9.441 4.356 9.441 10.324 1.224-7.633 7.059 2.025 10.197-9.072-5.078z"></path>
</symbol>
<symbol id="icon-btn-forward" viewBox="0 0 21 32">
<path fill="#fff" style="fill: var(--color3, #fff)" d="M13.082 15.246l-11.733-11.733 3.352-3.352 15.085 15.085-15.085 15.085-3.352-3.352 11.733-11.733z"></path>
</symbol>
<symbol id="icon-btn-back" viewBox="0 0 20 32">
<path fill="#ccc" style="fill: var(--color1, #ccc)" d="M6.821 15.247l11.733 11.733-3.352 3.352-15.085-15.085 15.085-15.085 3.352 3.352-11.733 11.733z"></path>
</symbol>
<symbol id="icon-fb" viewBox="0 0 17 32">
<path d="M9.729 11.571v-3.84c0-1.060 0.86-1.92 1.92-1.92h1.92v-4.8h-3.84c-3.181 0-5.76 2.579-5.76 5.76v4.8h-3.84v4.8h3.84v15.36h5.76v-15.36h3.84l1.92-4.8h-5.76z"></path>
</symbol>
<symbol id="icon-tw" viewBox="0 0 40 32">
<path d="M38.561 3.757c-1.428 0.626-2.95 1.042-4.536 1.243 1.632-0.974 2.878-2.506 3.463-4.351-1.522 0.907-3.202 1.548-4.992 1.906-1.445-1.538-3.504-2.491-5.75-2.491-4.358 0-7.867 3.538-7.867 7.874 0 0.624 0.053 1.224 0.182 1.795-6.545-0.319-12.336-3.456-16.226-8.234-0.679 1.178-1.078 2.527-1.078 3.979 0 2.726 1.404 5.143 3.497 6.542-1.265-0.024-2.506-0.391-3.557-0.97 0 0.024 0 0.055 0 0.086 0 3.826 2.729 7.003 6.307 7.735-0.641 0.175-1.339 0.259-2.064 0.259-0.504 0-1.013-0.029-1.49-0.134 1.020 3.118 3.914 5.41 7.356 5.484-2.678 2.095-6.079 3.358-9.761 3.358-0.646 0-1.265-0.029-1.884-0.108 3.487 2.249 7.62 3.533 12.077 3.533 14.486 0 22.406-12 22.406-22.402 0-0.348-0.012-0.684-0.029-1.018 1.562-1.109 2.875-2.494 3.946-4.087z"></path>
</symbol>
<symbol id="icon-insta" viewBox="0 0 32 32">
<path d="M30.819 10.042c-0.072-1.632-0.336-2.754-0.714-3.727-0.39-1.032-0.99-1.956-1.776-2.724-0.768-0.78-1.698-1.386-2.719-1.77-0.978-0.378-2.094-0.642-3.727-0.714-1.644-0.078-2.167-0.096-6.337-0.096s-4.693 0.018-6.331 0.090c-1.632 0.072-2.754 0.336-3.727 0.714-1.032 0.39-1.956 0.99-2.725 1.776-0.78 0.768-1.386 1.698-1.77 2.719-0.378 0.978-0.642 2.094-0.714 3.727-0.078 1.644-0.096 2.167-0.096 6.337s0.018 4.693 0.090 6.331c0.072 1.632 0.336 2.754 0.714 3.727 0.39 1.032 0.996 1.956 1.776 2.724 0.768 0.78 1.698 1.386 2.719 1.77 0.978 0.378 2.094 0.642 3.727 0.714 1.638 0.072 2.16 0.090 6.331 0.090s4.693-0.018 6.331-0.090c1.632-0.072 2.754-0.336 3.727-0.714 2.064-0.798 3.697-2.43 4.495-4.495 0.378-0.978 0.642-2.095 0.714-3.727 0.072-1.638 0.090-2.16 0.090-6.331s-0.006-4.693-0.078-6.331zM28.052 22.585c-0.066 1.5-0.318 2.31-0.528 2.851-0.516 1.338-1.578 2.401-2.917 2.917-0.54 0.21-1.356 0.462-2.851 0.528-1.62 0.072-2.106 0.090-6.205 0.090s-4.591-0.018-6.205-0.090c-1.5-0.066-2.31-0.318-2.851-0.528-0.666-0.246-1.272-0.636-1.764-1.146-0.51-0.498-0.9-1.098-1.146-1.764-0.21-0.54-0.462-1.356-0.528-2.851-0.072-1.62-0.090-2.107-0.090-6.205s0.018-4.591 0.090-6.205c0.066-1.5 0.318-2.31 0.528-2.851 0.246-0.666 0.636-1.272 1.152-1.764 0.498-0.51 1.098-0.9 1.764-1.146 0.54-0.21 1.356-0.462 2.851-0.528 1.62-0.072 2.107-0.090 6.205-0.090 4.105 0 4.591 0.018 6.205 0.090 1.5 0.066 2.31 0.318 2.851 0.528 0.666 0.246 1.272 0.636 1.764 1.146 0.51 0.498 0.9 1.098 1.146 1.764 0.21 0.54 0.462 1.356 0.528 2.851 0.072 1.62 0.090 2.106 0.090 6.205s-0.018 4.579-0.090 6.199z"></path>
<path d="M15.546 8.482c-4.357 0-7.892 3.535-7.892 7.891s3.535 7.892 7.892 7.892c4.357 0 7.891-3.535 7.891-7.892s-3.535-7.892-7.891-7.892zM15.546 21.492c-2.826 0-5.119-2.292-5.119-5.119s2.293-5.119 5.119-5.119c2.827 0 5.119 2.292 5.119 5.119s-2.292 5.119-5.119 5.119z"></path>
<path d="M25.592 8.17c0 1.017-0.825 1.842-1.843 1.842s-1.842-0.825-1.842-1.842c0-1.018 0.825-1.842 1.842-1.842s1.843 0.825 1.843 1.842z"></path>
</symbol>
</defs>
</svg>