<svg aria-hidden="true" style="position: absolute; width: 0; height: 0; overflow: hidden;" version="1.1" xmlns="http://www.w3.org/2000/svg" xmlns:xlink="http://www.w3.org/1999/xlink">
<defs>
<symbol id="icon-logo" viewBox="0 0 33 32">
<path fill="#89c8fd" style="fill: var(--color6, #89c8fd)" d="M24.242 18.41c0-5.816-4.702-10.531-10.503-10.531s-10.503 4.715-10.503 10.531c0 5.816 4.702 10.531 10.503 10.531s10.503-4.715 10.503-10.531z"></path>
<path fill="#60b6ff" style="fill: var(--color7, #60b6ff)" d="M13.739 7.879c-0.539 0-1.069 0.041-1.586 0.119 5.048 0.767 8.917 5.136 8.917 10.412s-3.869 9.645-8.917 10.412c0.517 0.079 1.047 0.119 1.586 0.119 5.801 0 10.503-4.715 10.503-10.531s-4.702-10.531-10.503-10.531z"></path>
<path fill="#baeb6c" style="fill: var(--color8, #baeb6c)" d="M12.374 11.971c-1.618 1.014-2.832 2.636-1.921 4.461s2.933 1.115 4.803 0.862c1.871-0.253 0.455 5.526 1.567 6.945s4.247-1.419 3.944-3.245c-0.449-2.702-0.607-3.65 3.034-5.576l0.010-0.004c-1.227-4.155-4.941-7.238-9.414-7.515l-0.001 0.016c0 0-0.405 3.042-2.022 4.056z"></path>
<path fill="#baeb6c" style="fill: var(--color8, #baeb6c)" d="M20.32 10.202c0.001 0.001 0.002 0.001 0.002 0.002-0.001-0.001-0.002-0.001-0.002-0.002z"></path>
<path fill="#baeb6c" style="fill: var(--color8, #baeb6c)" d="M21.604 11.431c0 0 0 0.001 0 0.001s-0-0-0-0.001z"></path>
<path fill="#baeb6c" style="fill: var(--color8, #baeb6c)" d="M6.762 23.175c-0.486-0.741 0.86-2.484 1.163-3.802s-1.517-1.217-2.073-1.673c-0.556-0.456-1.315-2.433-1.871-2.89l-0.089-0.070c-0.424 1.143-0.656 2.379-0.656 3.669 0 3.481 1.685 6.567 4.281 8.484l0.003-0.221c0 0 0.404-1.724-0.758-3.498z"></path>
<path fill="#baeb6c" style="fill: var(--color8, #baeb6c)" d="M20.767 20.995c-0.002-0.013-0.004-0.026-0.007-0.039-0.201 0.812-0.496 1.586-0.872 2.312 0.597-0.705 0.997-1.565 0.879-2.272z"></path>
<path fill="#96d629" style="fill: var(--color9, #96d629)" d="M14.397 7.9l-0 0.016c0 0-0.034 0.254-0.121 0.639 3.683 1.394 6.38 4.804 6.751 8.888 0.464-0.635 1.313-1.25 2.774-2.024l0.010-0.004c-1.227-4.155-4.941-7.238-9.414-7.515z"></path>
<path fill="#09a66d" style="fill: var(--color3, #09a66d)" d="M13.725 32c-0.744 0-1.493-0.061-2.242-0.185-3.579-0.591-6.714-2.541-8.827-5.489s-2.951-6.544-2.36-10.123c0.043-0.259 0.288-0.435 0.547-0.392s0.435 0.288 0.392 0.547c-0.55 3.328 0.23 6.672 2.195 9.414s4.88 4.555 8.209 5.105c6.872 1.135 13.384-3.532 14.52-10.403 0.55-3.328-0.23-6.672-2.195-9.414s-4.88-4.555-8.209-5.105c-0.259-0.043-0.435-0.288-0.392-0.547s0.288-0.435 0.547-0.392c3.58 0.591 6.715 2.541 8.827 5.489s2.951 6.544 2.36 10.123c-0.591 3.579-2.541 6.714-5.49 8.827-2.332 1.671-5.069 2.545-7.882 2.545z"></path>
<path fill="#49cb5c" style="fill: var(--color10, #49cb5c)" d="M10.836 11.493c-5.079-0.862-8.23-7.257-8.23-7.257s5.084-4.998 10.163-4.136c5.079 0.862 8.23 7.257 8.23 7.257s-5.084 4.998-10.163 4.136z"></path>
<path fill="#07b128" style="fill: var(--color11, #07b128)" d="M12.77 0.1c-0.97-0.165-1.94-0.115-2.874 0.072 4.867 1.093 7.869 7.184 7.869 7.184s-3.328 3.271-7.289 4.064c0.119 0.027 0.239 0.052 0.361 0.072 5.079 0.862 10.163-4.136 10.163-4.136s-3.151-6.395-8.23-7.257z"></path>
<path fill="#09a66d" style="fill: var(--color3, #09a66d)" d="M20.713 6.825l-4.967-0.838-4.64-5.974c-0.37 0.022-0.737 0.069-1.099 0.137l4.352 5.603-3.745-0.632-3.196-4.135c-0.3 0.135-0.591 0.279-0.872 0.428l2.685 3.474-6.193-1.045c-0.278 0.243-0.431 0.393-0.431 0.393s0.102 0.207 0.298 0.55l6.159 1.039-3.416 2.641c0.22 0.227 0.451 0.45 0.692 0.668l4.001-3.094 3.965 0.669-5.393 4.172c0.335 0.156 0.681 0.292 1.037 0.4l5.632-4.357 4.97 0.838c0.288-0.251 0.447-0.407 0.447-0.407s-0.098-0.199-0.287-0.531z"></path>
<path fill="#49cb5c" style="fill: var(--color10, #49cb5c)" d="M24.454 5.285c1.363-3.224 6.084-4.31 6.084-4.31s2.512 4.142 1.149 7.366c-1.362 3.224-6.084 4.31-6.084 4.31s-2.512-4.142-1.149-7.366z"></path>
<path fill="#07b128" style="fill: var(--color11, #07b128)" d="M30.538 0.976c0 0-1.073 0.247-2.345 0.855 0.652 1.381 1.686 4.185 0.703 6.511-0.713 1.687-2.344 2.788-3.739 3.455 0.252 0.533 0.447 0.855 0.447 0.855s4.721-1.085 6.084-4.31c1.362-3.224-1.15-7.366-1.15-7.366z"></path>
<path fill="#09a66d" style="fill: var(--color3, #09a66d)" d="M32.073 5.683l-3.63 1.523 2.384-5.699c-0.171-0.337-0.289-0.531-0.289-0.531s-0.225 0.052-0.59 0.166l-2.463 5.889-1.528-3.759c-0.259 0.228-0.503 0.476-0.724 0.745l1.731 4.259-1.626 3.887c0.159 0.31 0.266 0.488 0.266 0.488s0.244-0.056 0.637-0.181l1.679-4.014 4.152-1.742c0.028-0.345 0.026-0.691 0.002-1.033z"></path>
</symbol>
<symbol id="icon-basket">
<svg  fill="none" xmlns="http://www.w3.org/2000/svg">
<path fill-rule="evenodd" clip-rule="evenodd" d="M5.6166 17.8203C6.0386 17.8203 6.3816 18.1633 6.3816 18.5853C6.3816 19.0073 6.0386 19.3493 5.6166 19.3493C5.1946 19.3493 4.8526 19.0073 4.8526 18.5853C4.8526 18.1633 5.1946 17.8203 5.6166 17.8203Z" stroke="#222222" stroke-width="1.5" stroke-linecap="round" stroke-linejoin="round"/>
<path fill-rule="evenodd" clip-rule="evenodd" d="M16.869 17.8203C17.291 17.8203 17.634 18.1633 17.634 18.5853C17.634 19.0073 17.291 19.3493 16.869 19.3493C16.447 19.3493 16.104 19.0073 16.104 18.5853C16.104 18.1633 16.447 17.8203 16.869 17.8203Z" stroke="#222222" stroke-width="1.5" stroke-linecap="round" stroke-linejoin="round"/>
<path d="M0.944214 1.25L3.02421 1.61L3.98721 13.083C4.06521 14.018 4.84621 14.736 5.78421 14.736H16.6962C17.5922 14.736 18.3522 14.078 18.4812 13.19L19.4302 6.632C19.5472 5.823 18.9202 5.099 18.1032 5.099H3.35821" stroke="#222222" stroke-width="1.5" stroke-linecap="round" stroke-linejoin="round"/>
<path d="M12.3197 8.79688H15.0927" stroke="#222222" stroke-width="1.5" stroke-linecap="round" stroke-linejoin="round"/>
</svg>
</symbol>
<symbol id="icon-search" viewBox="0 0 32 32">
<svg fill="none" xmlns="http://www.w3.org/2000/svg">
<circle cx="9.96091" cy="9.76663" r="8.98856" stroke="#222222" stroke-width="1.5" stroke-linecap="round" stroke-linejoin="round"/>
<path d="M16.2126 16.4851L19.7367 20" stroke="#222222" stroke-width="1.5" stroke-linecap="round" stroke-linejoin="round"/>
</svg>

</symbol>
<symbol id="icon-star" viewBox="0 0 32 32">
<path fill="#fed42d" style="fill: var(--color4, #fed42d)" d="M31.954 12.329c-0.11-0.339-0.404-0.587-0.757-0.638l-9.92-1.442-4.436-8.989c-0.158-0.32-0.484-0.523-0.841-0.523s-0.683 0.203-0.841 0.523l-4.437 8.989-9.92 1.442c-0.353 0.051-0.647 0.299-0.757 0.638s-0.018 0.712 0.237 0.961l7.178 6.997-1.694 9.88c-0.060 0.352 0.084 0.707 0.373 0.917s0.671 0.238 0.987 0.071l8.873-4.665 8.872 4.665c0.137 0.072 0.287 0.108 0.436 0.108 0.194 0 0.388-0.060 0.551-0.179 0.289-0.21 0.433-0.565 0.373-0.917l-1.695-9.88 7.179-6.997c0.256-0.249 0.348-0.622 0.237-0.961z"></path>
<path fill="#fcbf29" style="fill: var(--color5, #fcbf29)" d="M31.954 12.329c-0.11-0.339-0.404-0.587-0.757-0.638l-9.92-1.442-4.436-8.989c-0.158-0.32-0.484-0.523-0.841-0.523v25.753l8.873 4.665c0.137 0.072 0.287 0.108 0.436 0.108 0.194 0 0.388-0.060 0.551-0.179 0.289-0.21 0.433-0.565 0.373-0.917l-1.695-9.88 7.179-6.997c0.256-0.249 0.348-0.622 0.237-0.961z"></path>
</symbol>
<symbol id="icon-user" viewBox="0 0 32 32">
<path fill="#09a66d" style="fill: var(--color3, #09a66d)" d="M16.002 0c-4.572 0-8.308 3.737-8.308 8.308s3.737 8.308 8.308 8.308c4.571 0 8.308-3.737 8.308-8.308s-3.737-8.308-8.308-8.308z"></path>
<path fill="#09a66d" style="fill: var(--color3, #09a66d)" d="M30.261 23.256c-0.218-0.544-0.508-1.052-0.834-1.524-1.669-2.467-4.245-4.1-7.147-4.499-0.363-0.036-0.762 0.036-1.052 0.254-1.524 1.125-3.338 1.705-5.224 1.705s-3.701-0.58-5.225-1.705c-0.29-0.218-0.689-0.326-1.052-0.254-2.902 0.399-5.515 2.032-7.147 4.499-0.327 0.472-0.617 1.016-0.834 1.524-0.109 0.218-0.073 0.472 0.036 0.689 0.29 0.508 0.653 1.016 0.98 1.451 0.508 0.689 1.052 1.306 1.669 1.887 0.508 0.508 1.088 0.98 1.669 1.451 2.866 2.141 6.313 3.265 9.868 3.265s7.002-1.125 9.869-3.265c0.581-0.435 1.161-0.943 1.669-1.451 0.581-0.581 1.161-1.197 1.669-1.887 0.363-0.472 0.689-0.943 0.98-1.451 0.181-0.218 0.218-0.472 0.109-0.689z"></path>
</symbol>
<symbol id="icon-food" viewBox="0 0 32 32">
<path fill="#09a66d" style="fill: var(--color3, #09a66d)" d="M22.472 10h1.45c1.207 0 2.218-0.861 2.45-2h-1.45c-1.207 0-2.217 0.861-2.45 2z"></path>
<path fill="#09a66d" style="fill: var(--color3, #09a66d)" d="M11 5.5c0.050 0 0.098 0.006 0.147 0.008l0.351-3.51c0.002-0.294-0.201-0.498-0.45-0.498h-0.095c-0.25 0-0.453 0.203-0.453 0.453l0.354 3.555c0.049-0.002 0.097-0.008 0.146-0.008z"></path>
<path fill="#09a66d" style="fill: var(--color3, #09a66d)" d="M7 16c0-0.171 0.018-0.337 0.045-0.5h-1.045v0.342c0.375 0.179 0.713 0.42 1 0.713v-0.555z"></path>
<path fill="#09a66d" style="fill: var(--color3, #09a66d)" d="M6.595 3.778l1.711 2.518c0.134-0.087 0.273-0.167 0.415-0.24l-1.029-2.829c-0.008-0.020-0.015-0.038-0.024-0.057-0.071-0.141-0.183-0.239-0.322-0.284s-0.288-0.035-0.418 0.030l-0.125 0.063c-0.271 0.135-0.38 0.465-0.245 0.736 0.011 0.020 0.024 0.042 0.038 0.063z"></path>
<path fill="#09a66d" style="fill: var(--color3, #09a66d)" d="M8.691 14.5h5.569l0.656-3.148c0.056-0.268 0.084-0.543 0.084-0.816 0-2.242-1.794-4.036-4-4.036s-4 1.794-4 4c0 0.309 0.029 0.584 0.084 0.852l0.578 2.773c0.55-0.685 1.393-1.125 2.338-1.125v1c-0.502 0-0.957 0.193-1.309 0.5zM12.5 8.5h1v1h-1v-1zM12.5 10.5h1v1h-1v-1zM12.5 12.5h1v1h-1v-1z"></path>
<path fill="#09a66d" style="fill: var(--color3, #09a66d)" d="M5.5 18.5h1.45c-0.232-1.139-1.242-2-2.45-2h-1.45c0.232 1.139 1.242 2 2.45 2z"></path>
<path fill="#09a66d" style="fill: var(--color3, #09a66d)" d="M15.405 3.777c0.013-0.020 0.027-0.042 0.037-0.064 0.134-0.268 0.024-0.599-0.246-0.734l-0.125-0.063c-0.131-0.065-0.278-0.076-0.418-0.030-0.139 0.046-0.252 0.144-0.317 0.275-0.014 0.028-0.022 0.046-0.029 0.066l-1.028 2.829c0.143 0.074 0.281 0.154 0.415 0.24l1.711-2.518z"></path>
<path fill="#09a66d" style="fill: var(--color3, #09a66d)" d="M14.492 24.5h14.008v-3h-14.674c0.441 0.928 0.665 1.949 0.666 3zM26.5 22.5h1v1h-1v-1z"></path>
<path fill="#09a66d" style="fill: var(--color3, #09a66d)" d="M13.232 28.5h13.768c0.827 0 1.5-0.673 1.5-1.5v-1.5h-14.072c-0.159 1.102-0.581 2.123-1.197 3zM26.5 26.5h1v1h-1v-1z"></path>
<path fill="#09a66d" style="fill: var(--color3, #09a66d)" d="M8.071 15.5c-0.042 0.161-0.071 0.326-0.071 0.5v0.5h22.5v-1h-22.429z"></path>
<path fill="#09a66d" style="fill: var(--color3, #09a66d)" d="M8 18.933c0.101-0.024 0.201-0.050 0.293-0.090 1.525-0.652 3.3-0.261 4.413 0.977 0.194 0.215 0.368 0.445 0.531 0.678h15.263v-3h-20.5v1.434zM26.5 18.5h1v1h-1v-1z"></path>
<path fill="#09a66d" style="fill: var(--color3, #09a66d)" d="M11.963 20.49c-0.814-0.905-2.162-1.204-3.277-0.727-0.214 0.091-0.447 0.154-0.686 0.193v0.942c0.496-0.185 0.968-0.575 1.147-0.753l0.707 0.708c-0.117 0.117-1.18 1.146-2.354 1.146s-2.236-1.029-2.354-1.146l0.707-0.708c0.179 0.177 0.651 0.567 1.147 0.753v-1.398h-1.5c-0.17 0-0.335-0.016-0.497-0.040-0.701 0.050-1.442 0.442-1.988 1.055-0.977 1.099-1.514 2.513-1.514 3.985 0 1.646 0.654 3.182 1.841 4.324s2.739 1.731 4.399 1.672c3.091-0.119 5.619-2.634 5.755-5.723 0.069-1.585-0.475-3.107-1.532-4.282zM7.5 29.5c-2.757 0-5-2.243-5-5h1c0 2.206 1.795 4 4 4v1z"></path>
<path fill="#09a66d" style="fill: var(--color3, #09a66d)" d="M26.385 14.5c-0.239-0.929-0.695-1.788-1.345-2.51-0.814-0.905-2.162-1.204-3.277-0.726-0.085 0.037-0.174 0.067-0.264 0.095v-4.359c0-0.827 0.673-1.5 1.5-1.5h0.5v-1h-0.5c-1.378 0-2.5 1.122-2.5 2.5v4.359c-0.090-0.028-0.179-0.059-0.264-0.095-1.114-0.477-2.462-0.178-3.277 0.726-0.649 0.722-1.105 1.581-1.345 2.51h10.771zM18.753 12.069c0.008 0.004 0.765 0.431 2.247 0.431s2.239-0.427 2.247-0.431l0.511 0.86c-0.038 0.024-0.973 0.572-2.757 0.572s-2.718-0.548-2.758-0.572l0.511-0.86z"></path>
</symbol>
<symbol id="icon-arrow" viewBox="0 0 66 32">
<path fill="#fff" style="fill: var(--color2, #fff)" d="M65.414 17.352c0.781-0.781 0.781-2.047 0-2.828l-12.728-12.728c-0.781-0.781-2.047-0.781-2.828 0s-0.781 2.047 0 2.828l11.314 11.314-11.314 11.314c-0.781 0.781-0.781 2.047 0 2.828s2.047 0.781 2.828 0l12.728-12.728zM0 17.938h64v-4h-64v4z"></path>
</symbol>
</defs>
</svg>